<svg width="241" height="68" viewBox="0 0 241 68" fill="none" xmlns="http://www.w3.org/2000/svg">
<path fill-rule="evenodd" clip-rule="evenodd" d="M80.6843 14.4041C81.153 14.4041 81.533 14.7839 81.533 15.2525L81.4991 36.886L90.6708 26.2687C90.832 26.0884 91.0626 25.9855 91.3045 25.9858H96.1845C96.5089 25.9948 96.7998 26.1878 96.934 26.4831C97.0681 26.7785 97.0221 27.1245 96.8154 27.3745L86.7356 38.8941L97.4859 51.3923C97.688 51.6432 97.7305 51.987 97.5955 52.2796C97.4606 52.5722 97.1715 52.7631 96.8494 52.7725H91.8873C91.6469 52.7733 91.4178 52.6702 91.2592 52.4896L81.5019 41.366L81.533 51.9353C81.5331 52.1588 81.4431 52.3729 81.2834 52.5293C81.1238 52.6858 80.9078 52.7714 80.6843 52.7668H76.3078C75.8446 52.7669 75.4668 52.3955 75.4591 51.9325V15.2525C75.4591 14.7839 75.8391 14.4041 76.3078 14.4041H80.6843ZM151.933 19.4807C152.385 19.4807 152.755 19.834 152.781 20.2794L152.782 20.3292V26.0056H159.133C159.585 26.0056 159.955 26.3588 159.98 26.8042L159.982 26.8541V30.248C159.982 30.6999 159.629 31.0692 159.183 31.095L159.133 31.0965H152.782V43.4278C152.782 46.4936 154.171 47.9078 157.153 47.9078C157.741 47.9057 158.326 47.8199 158.89 47.6532C159.143 47.5812 159.416 47.6308 159.627 47.7876C159.824 47.9331 159.947 48.1557 159.968 48.3975L159.971 48.4536V51.9578C159.967 52.2976 159.761 52.6026 159.447 52.7328C158.113 53.2278 156.697 53.463 155.274 53.4257C149.998 53.4257 146.834 50.188 146.771 44.7665L146.77 44.6015V31.1106H143.565C143.113 31.1106 142.744 30.7574 142.718 30.312L142.716 30.2621V26.8682C142.716 26.4163 143.07 26.047 143.515 26.0212L143.565 26.0197H146.765V20.3292C146.765 19.8826 147.11 19.5155 147.55 19.483L147.599 19.4807H151.933ZM112.098 25.3551C115.861 25.3551 119.116 26.8787 121.055 29.5382L121.137 29.6512L121.445 30.0868V26.8569C121.445 26.4103 121.79 26.0432 122.23 26.0106L122.279 26.0084H126.56C127.012 26.0084 127.381 26.3616 127.407 26.807L127.409 26.8569V51.9267C127.403 52.3701 127.057 52.7312 126.62 52.7618L126.571 52.7639H122.279C121.833 52.7564 121.472 52.405 121.446 51.9647L121.445 51.9154V48.4621L121.137 48.9005C119.139 51.7287 115.759 53.4257 112.098 53.4257C104.782 53.4257 99.0532 47.2629 99.0532 39.3918C99.0532 31.5207 104.782 25.3551 112.098 25.3551ZM234.434 29.5382C232.494 26.8787 229.24 25.3551 225.463 25.3551C218.15 25.3551 212.421 31.5207 212.421 39.3918C212.421 47.2629 218.15 53.4257 225.463 53.4257C229.14 53.4257 232.507 51.7287 234.515 48.9005L234.821 48.4621V51.9154L234.822 51.9653C234.848 52.4107 235.218 52.7639 235.67 52.7639H239.961L240.01 52.7617C240.446 52.7297 240.79 52.3691 240.796 51.9267V26.8569L240.794 26.807C240.769 26.3616 240.399 26.0084 239.947 26.0084H235.67L235.62 26.0098C235.174 26.0356 234.821 26.405 234.821 26.8569V30.0868L234.515 29.6512L234.434 29.5382ZM170.478 26.0084C170.93 26.0084 171.299 26.3617 171.325 26.8071L171.326 26.8569V40.9389C171.326 45.269 173.581 47.8512 177.358 47.8512C181.245 47.8512 183.78 44.8741 183.83 40.2508L183.831 40.1102V26.8569C183.831 26.4051 184.184 26.0357 184.629 26.0099L184.679 26.0084H189.081C189.533 26.0084 189.903 26.3617 189.929 26.8071L189.93 26.8569V51.9268C189.93 52.3786 189.577 52.748 189.131 52.7738L189.081 52.7753H184.679C184.227 52.7753 183.858 52.422 183.832 51.9766L183.831 51.9268V48.7704L183.517 49.2484C181.76 51.9437 178.885 53.4258 175.423 53.4258C169.213 53.4258 165.331 49.1929 165.243 42.3628L165.241 42.1551V26.8569C165.241 26.4051 165.594 26.0357 166.04 26.0099L166.09 26.0084H170.478ZM210.979 26.2585C210.955 25.8307 210.613 25.4843 210.18 25.4598L209.81 25.4606C206.356 25.5069 203.307 27.4929 202.013 30.5507L201.685 31.3256V26.8569L201.683 26.8071C201.657 26.3617 201.288 26.0085 200.836 26.0085H196.561L196.511 26.0099C196.066 26.0357 195.712 26.4051 195.712 26.8569V51.9268L195.714 51.9766C195.74 52.422 196.109 52.7753 196.561 52.7753H200.907L200.956 52.7738C201.402 52.748 201.755 52.3787 201.755 51.9268V40.9955L201.756 40.8248C201.811 35.2118 204.835 31.5943 209.493 31.5943L209.616 31.5945C209.779 31.5951 209.938 31.5983 210.09 31.6141C210.319 31.6256 210.544 31.5433 210.712 31.386C210.88 31.2287 210.977 31.0099 210.981 30.7798V26.3083L210.979 26.2585ZM138.892 15.2497C138.892 14.7873 138.517 14.4125 138.054 14.4125H133.655C133.193 14.4125 132.818 14.7873 132.818 15.2497V51.9268C132.818 52.3891 133.193 52.764 133.655 52.764H138.054C138.517 52.764 138.892 52.3891 138.892 51.9268V15.2497ZM113.425 30.825C108.771 30.825 105.127 34.5922 105.127 39.3975C105.127 44.1547 108.698 47.8918 113.285 47.966L113.425 47.9671V47.9615C118.076 47.9615 121.719 44.2027 121.719 39.3975C121.719 34.5922 118.078 30.825 113.425 30.825ZM218.517 39.3975C218.517 34.5922 222.161 30.825 226.812 30.825C231.463 30.825 235.109 34.5922 235.109 39.3975C235.109 44.2027 231.466 47.9615 226.812 47.9615V47.9671L226.673 47.966C222.089 47.8918 218.517 44.1547 218.517 39.3975Z" fill="#282828"/>
<path fill-rule="evenodd" clip-rule="evenodd" d="M29.0602 21.5425C27.7476 21.5425 26.681 20.2246 26.681 18.9122V7.62175C26.681 6.3066 27.7476 4.99146 29.0602 4.99146C30.3729 4.99146 31.4423 6.3066 31.4423 7.62175V18.8981C31.4423 20.2104 30.3757 21.5425 29.0602 21.5425Z" fill="#282828"/>
<path fill-rule="evenodd" clip-rule="evenodd" d="M20.296 25.1569C19.3681 26.0874 17.682 25.9092 16.754 24.9787L8.7762 17.0171C7.84828 16.0866 7.67005 14.4038 8.6008 13.4733C9.53155 12.5428 11.2148 12.721 12.1427 13.6515L20.1206 21.6244C21.0485 22.5436 21.2267 24.2264 20.296 25.1569Z" fill="#282828"/>
<path fill-rule="evenodd" clip-rule="evenodd" d="M16.6663 33.9191C16.6663 35.2343 15.3508 36.3005 14.0353 36.3005H2.75599C1.4405 36.3005 0.125 35.2343 0.125 33.9191C0.125 32.604 1.4405 31.5405 2.75599 31.5405H14.0353C15.3508 31.5405 16.6663 32.604 16.6663 33.9191Z" fill="#282828"/>
<path fill-rule="evenodd" clip-rule="evenodd" d="M20.2959 42.6811C21.2267 43.6116 21.0485 45.2945 20.1205 46.225L12.1427 54.1979C11.2148 55.1284 9.52867 55.3066 8.60075 54.3761C7.67283 53.4456 7.84823 51.7627 8.77615 50.8322L16.754 42.8593C17.6819 41.9288 19.368 41.7535 20.2959 42.6811Z" fill="#282828"/>
<path fill-rule="evenodd" clip-rule="evenodd" d="M29.0602 46.3125C30.3757 46.3125 31.4423 47.6276 31.4423 48.9428V60.2191C31.4423 61.5343 30.3757 62.8494 29.0602 62.8494C27.7447 62.8494 26.681 61.5343 26.681 60.2191V48.9428C26.681 47.6276 27.7476 46.3125 29.0602 46.3125Z" fill="#282828"/>
<path fill-rule="evenodd" clip-rule="evenodd" d="M37.8246 42.6811C38.7554 41.7535 40.4386 41.9288 41.3694 42.8593L49.3444 50.8322C50.2751 51.7627 50.4534 53.4456 49.5226 54.3761C48.5919 55.3066 46.9086 55.1284 45.9779 54.1979L38.0028 46.225C37.0721 45.3001 36.8967 43.6032 37.8246 42.6811Z" fill="#282828"/>
<path fill-rule="evenodd" clip-rule="evenodd" d="M41.457 33.9191C41.457 32.604 42.7725 31.5405 44.088 31.5405H55.3673C56.6828 31.5405 57.9983 32.604 57.9983 33.9191C57.9983 35.2343 56.6828 36.3005 55.3673 36.3005H44.0767C42.7725 36.3005 41.457 35.2343 41.457 33.9191Z" fill="#282828"/>
<path fill-rule="evenodd" clip-rule="evenodd" d="M37.8246 25.1571C36.8967 24.2266 37.0721 22.5437 38.0028 21.6132L45.9779 13.6403C46.9086 12.7098 48.5919 12.5345 49.5226 13.4621C50.4534 14.3898 50.2751 16.0755 49.3444 17.006L41.3694 24.9789C40.4386 25.9094 38.7554 26.0876 37.8246 25.1571Z" fill="#282828"/>
<ellipse cx="29.0603" cy="33.9192" rx="3.82767" ry="3.82666" fill="#282828"/>
</svg>
